{
    "asset" : {
        "generator" : "Khronos glTF Blender I/O v1.5.17",
        "version" : "2.0"
    },
    "extensionsUsed" : [
        "KHR_materials_clearcoat"
    ],
    "scene" : 0,
    "scenes" : [
        {
            "name" : "Scene",
            "nodes" : [
                0,
                1,
                2,
                3
            ]
        }
    ],
    "nodes" : [
        {
            "mesh" : 0,
            "name" : "Circle",
            "translation" : [
                0,
                0.20000000298023224,
                0
            ]
        },
        {
            "mesh" : 1,
            "name" : "Circle.001",
            "rotation" : [
                0,
                0.13422748446464539,
                0,
                0.9909506440162659
            ],
            "scale" : [
                0.13724952936172485,
                0.13724951446056366,
                0.13724952936172485
            ],
            "translation" : [
                0.4011773467063904,
                0.21040214598178864,
                -0.30462443828582764
            ]
        },
        {
            "mesh" : 2,
            "name" : "Circle.002",
            "rotation" : [
                0,
                0.2617517411708832,
                0,
                0.9651352167129517
            ],
            "scale" : [
                0.1050732284784317,
                0.1050732284784317,
                0.1050732284784317
            ],
            "translation" : [
                0,
                0.20000000298023224,
                0.6621371507644653
            ]
        },
        {
            "mesh" : 3,
            "name" : "Circle.003",
            "rotation" : [
                0.00017537063104100525,
                0.027196263894438744,
                -0.006445816718041897,
                0.9996092915534973
            ],
            "scale" : [
                0.12699705362319946,
                0.12699703872203827,
                0.12699706852436066
            ],
            "translation" : [
                -0.5370916128158569,
                0.20000000298023224,
                -0.4569476842880249
            ]
        }
    ],
    "materials" : [
        {
            "doubleSided" : true,
            "extensions" : {
                "KHR_materials_clearcoat" : {
                    "clearcoatFactor" : 0.15346534550189972,
                    "clearcoatRoughnessFactor" : 0.20326730608940125
                }
            },
            "name" : "Grass",
            "pbrMetallicRoughness" : {
                "baseColorFactor" : [
                    0.001819870201870799,
                    0.02539389207959175,
                    0,
                    1
                ],
                "metallicRoughnessTexture" : {
                    "index" : 0
                }
            }
        },
        {
            "doubleSided" : true,
            "extensions" : {
                "KHR_materials_clearcoat" : {
                    "clearcoatFactor" : 0.07920792698860168,
                    "clearcoatRoughnessFactor" : 0.15000000596046448
                }
            },
            "name" : "Tree",
            "pbrMetallicRoughness" : {
                "baseColorFactor" : [
                    0.014872302301228046,
                    0.09462554007768631,
                    0.010412669740617275,
                    1
                ],
                "metallicRoughnessTexture" : {
                    "index" : 1
                }
            }
        }
    ],
    "meshes" : [
        {
            "name" : "Circle",
            "primitives" : [
                {
                    "attributes" : {
                        "POSITION" : 0,
                        "NORMAL" : 1,
                        "TEXCOORD_0" : 2
                    },
                    "indices" : 3,
                    "material" : 0
                }
            ]
        },
        {
            "name" : "Circle.002",
            "primitives" : [
                {
                    "attributes" : {
                        "POSITION" : 4,
                        "NORMAL" : 5,
                        "TEXCOORD_0" : 6
                    },
                    "indices" : 7,
                    "material" : 1
                }
            ]
        },
        {
            "name" : "Circle.003",
            "primitives" : [
                {
                    "attributes" : {
                        "POSITION" : 8,
                        "NORMAL" : 9,
                        "TEXCOORD_0" : 10
                    },
                    "indices" : 7,
                    "material" : 1
                }
            ]
        },
        {
            "name" : "Circle.004",
            "primitives" : [
                {
                    "attributes" : {
                        "POSITION" : 11,
                        "NORMAL" : 12,
                        "TEXCOORD_0" : 13
                    },
                    "indices" : 7,
                    "material" : 1
                }
            ]
        }
    ],
    "textures" : [
        {
            "sampler" : 0,
            "source" : 0
        },
        {
            "sampler" : 0,
            "source" : 1
        }
    ],
    "images" : [
        {
            "mimeType" : "image/png",
            "name" : "grass",
            "uri" : "grass.png"
        },
        {
            "mimeType" : "image/png",
            "name" : "tree_material",
            "uri" : "tree_material.png"
        }
    ],
    "accessors" : [
        {
            "bufferView" : 0,
            "componentType" : 5126,
            "count" : 1811,
            "max" : [
                0.866025447845459,
                0.05385543033480644,
                1
            ],
            "min" : [
                -0.8660542964935303,
                -0.001463562250137329,
                -1
            ],
            "type" : "VEC3"
        },
        {
            "bufferView" : 1,
            "componentType" : 5126,
            "count" : 1811,
            "type" : "VEC3"
        },
        {
            "bufferView" : 2,
            "componentType" : 5126,
            "count" : 1811,
            "type" : "VEC2"
        },
        {
            "bufferView" : 3,
            "componentType" : 5123,
            "count" : 1818,
            "type" : "SCALAR"
        },
        {
            "bufferView" : 4,
            "componentType" : 5126,
            "count" : 626,
            "max" : [
                0.9778338074684143,
                1.4179238080978394,
                1.2593070268630981
            ],
            "min" : [
                -1.1316704750061035,
                0.015859760344028473,
                -0.9118747711181641
            ],
            "type" : "VEC3"
        },
        {
            "bufferView" : 5,
            "componentType" : 5126,
            "count" : 626,
            "type" : "VEC3"
        },
        {
            "bufferView" : 6,
            "componentType" : 5126,
            "count" : 626,
            "type" : "VEC2"
        },
        {
            "bufferView" : 7,
            "componentType" : 5123,
            "count" : 1062,
            "type" : "SCALAR"
        },
        {
            "bufferView" : 8,
            "componentType" : 5126,
            "count" : 626,
            "max" : [
                0.9778338074684143,
                1.4179238080978394,
                1.2593070268630981
            ],
            "min" : [
                -1.1316704750061035,
                0.015859760344028473,
                -0.9118747711181641
            ],
            "type" : "VEC3"
        },
        {
            "bufferView" : 9,
            "componentType" : 5126,
            "count" : 626,
            "type" : "VEC3"
        },
        {
            "bufferView" : 10,
            "componentType" : 5126,
            "count" : 626,
            "type" : "VEC2"
        },
        {
            "bufferView" : 11,
            "componentType" : 5126,
            "count" : 626,
            "max" : [
                0.9778338074684143,
                1.4179238080978394,
                1.2593070268630981
            ],
            "min" : [
                -1.1316704750061035,
                0.015859760344028473,
                -0.9118747711181641
            ],
            "type" : "VEC3"
        },
        {
            "bufferView" : 12,
            "componentType" : 5126,
            "count" : 626,
            "type" : "VEC3"
        },
        {
            "bufferView" : 13,
            "componentType" : 5126,
            "count" : 626,
            "type" : "VEC2"
        }
    ],
    "bufferViews" : [
        {
            "buffer" : 0,
            "byteLength" : 21732,
            "byteOffset" : 0
        },
        {
            "buffer" : 0,
            "byteLength" : 21732,
            "byteOffset" : 21732
        },
        {
            "buffer" : 0,
            "byteLength" : 14488,
            "byteOffset" : 43464
        },
        {
            "buffer" : 0,
            "byteLength" : 3636,
            "byteOffset" : 57952
        },
        {
            "buffer" : 0,
            "byteLength" : 7512,
            "byteOffset" : 61588
        },
        {
            "buffer" : 0,
            "byteLength" : 7512,
            "byteOffset" : 69100
        },
        {
            "buffer" : 0,
            "byteLength" : 5008,
            "byteOffset" : 76612
        },
        {
            "buffer" : 0,
            "byteLength" : 2124,
            "byteOffset" : 81620
        },
        {
            "buffer" : 0,
            "byteLength" : 7512,
            "byteOffset" : 83744
        },
        {
            "buffer" : 0,
            "byteLength" : 7512,
            "byteOffset" : 91256
        },
        {
            "buffer" : 0,
            "byteLength" : 5008,
            "byteOffset" : 98768
        },
        {
            "buffer" : 0,
            "byteLength" : 7512,
            "byteOffset" : 103776
        },
        {
            "buffer" : 0,
            "byteLength" : 7512,
            "byteOffset" : 111288
        },
        {
            "buffer" : 0,
            "byteLength" : 5008,
            "byteOffset" : 118800
        }
    ],
    "samplers" : [
        {
            "magFilter" : 9729,
            "minFilter" : 9987
        }
    ],
    "buffers" : [
        {
            "byteLength" : 123808,
            "uri" : "grassland.bin"
        }
    ]
}
